# MagicaVoxel @ Ephtracy

# group
o 

# material
mtllib GoalFour.mtl
usemtl palette

# normals
vn -1 0 0
vn 1 0 0
vn 0 0 1
vn 0 0 -1
vn 0 -1 0
vn 0 1 0

# texcoords
vt 0.00195313 0.5
vt 0.0136719 0.5

# verts
v -1 -1 1
v -1 -1 -1
v -1 0.1 1
v -1 0.1 -1
v -0.7 0.1 0.7
v -0.7 0.1 0.3
v -0.7 0.1 -0.3
v -0.7 0.1 -0.7
v -0.7 0.2 0.7
v -0.7 0.2 0.3
v -0.7 0.2 -0.3
v -0.7 0.2 -0.7
v -0.6 0.1 0.3
v -0.6 0.1 0.2
v -0.6 0.1 -0.2
v -0.6 0.1 -0.3
v -0.6 0.2 0.3
v -0.6 0.2 0.2
v -0.6 0.2 -0.2
v -0.6 0.2 -0.3
v 0.2 0.1 0.6
v 0.2 0.1 0.2
v 0.2 0.1 -0.2
v 0.2 0.1 -0.6
v 0.2 0.2 0.6
v 0.2 0.2 0.2
v 0.2 0.2 -0.2
v 0.2 0.2 -0.6
v 0.3 0.1 0.7
v 0.3 0.1 0.6
v 0.3 0.1 -0.6
v 0.3 0.1 -0.7
v 0.3 0.2 0.7
v 0.3 0.2 0.6
v 0.3 0.2 -0.6
v 0.3 0.2 -0.7
v -0.3 0.1 0.7
v -0.3 0.1 0.6
v -0.3 0.1 -0.6
v -0.3 0.1 -0.7
v -0.3 0.2 0.7
v -0.3 0.2 0.6
v -0.3 0.2 -0.6
v -0.3 0.2 -0.7
v -0.2 0.1 0.6
v -0.2 0.1 0.2
v -0.2 0.1 -0.2
v -0.2 0.1 -0.6
v -0.2 0.2 0.6
v -0.2 0.2 0.2
v -0.2 0.2 -0.2
v -0.2 0.2 -0.6
v 0.6 0.1 0.3
v 0.6 0.1 0.2
v 0.6 0.1 -0.2
v 0.6 0.1 -0.3
v 0.6 0.2 0.3
v 0.6 0.2 0.2
v 0.6 0.2 -0.2
v 0.6 0.2 -0.3
v 0.7 0.1 0.7
v 0.7 0.1 0.3
v 0.7 0.1 -0.3
v 0.7 0.1 -0.7
v 0.7 0.2 0.7
v 0.7 0.2 0.3
v 0.7 0.2 -0.3
v 0.7 0.2 -0.7
v 1 -1 1
v 1 -1 -1
v 1 0.1 1
v 1 0.1 -1
v -1 -1 1
v -1 0.1 1
v 1 -1 1
v 1 0.1 1
v -0.7 0.1 0.7
v -0.7 0.2 0.7
v -0.3 0.1 0.7
v -0.3 0.2 0.7
v 0.3 0.1 0.7
v 0.3 0.2 0.7
v 0.7 0.1 0.7
v 0.7 0.2 0.7
v -0.3 0.1 0.6
v -0.3 0.2 0.6
v -0.2 0.1 0.6
v -0.2 0.2 0.6
v 0.2 0.1 0.6
v 0.2 0.2 0.6
v 0.3 0.1 0.6
v 0.3 0.2 0.6
v -0.6 0.1 -0.2
v -0.6 0.2 -0.2
v -0.2 0.1 -0.2
v -0.2 0.2 -0.2
v 0.2 0.1 -0.2
v 0.2 0.2 -0.2
v 0.6 0.1 -0.2
v 0.6 0.2 -0.2
v -0.7 0.1 -0.3
v -0.7 0.2 -0.3
v -0.6 0.1 -0.3
v -0.6 0.2 -0.3
v 0.6 0.1 -0.3
v 0.6 0.2 -0.3
v 0.7 0.1 -0.3
v 0.7 0.2 -0.3
v -0.7 0.1 0.3
v -0.7 0.2 0.3
v -0.6 0.1 0.3
v -0.6 0.2 0.3
v 0.6 0.1 0.3
v 0.6 0.2 0.3
v 0.7 0.1 0.3
v 0.7 0.2 0.3
v -0.6 0.1 0.2
v -0.6 0.2 0.2
v -0.2 0.1 0.2
v -0.2 0.2 0.2
v 0.2 0.1 0.2
v 0.2 0.2 0.2
v 0.6 0.1 0.2
v 0.6 0.2 0.2
v -0.3 0.1 -0.6
v -0.3 0.2 -0.6
v -0.2 0.1 -0.6
v -0.2 0.2 -0.6
v 0.2 0.1 -0.6
v 0.2 0.2 -0.6
v 0.3 0.1 -0.6
v 0.3 0.2 -0.6
v -0.7 0.1 -0.7
v -0.7 0.2 -0.7
v -0.3 0.1 -0.7
v -0.3 0.2 -0.7
v 0.3 0.1 -0.7
v 0.3 0.2 -0.7
v 0.7 0.1 -0.7
v 0.7 0.2 -0.7
v -1 -1 -1
v -1 0.1 -1
v 1 -1 -1
v 1 0.1 -1
v -1 -1 1
v 1 -1 1
v -1 -1 -1
v 1 -1 -1
v -1 0.1 1
v 1 0.1 1
v -0.7 0.1 0.7
v -0.3 0.1 0.7
v 0.3 0.1 0.7
v 0.7 0.1 0.7
v -0.3 0.1 0.6
v -0.2 0.1 0.6
v 0.2 0.1 0.6
v 0.3 0.1 0.6
v -0.7 0.1 0.3
v -0.6 0.1 0.3
v 0.6 0.1 0.3
v 0.7 0.1 0.3
v -0.6 0.1 0.2
v -0.2 0.1 0.2
v 0.2 0.1 0.2
v 0.6 0.1 0.2
v -0.6 0.1 -0.2
v -0.2 0.1 -0.2
v 0.2 0.1 -0.2
v 0.6 0.1 -0.2
v -0.7 0.1 -0.3
v -0.6 0.1 -0.3
v 0.6 0.1 -0.3
v 0.7 0.1 -0.3
v -0.3 0.1 -0.6
v -0.2 0.1 -0.6
v 0.2 0.1 -0.6
v 0.3 0.1 -0.6
v -0.7 0.1 -0.7
v -0.3 0.1 -0.7
v 0.3 0.1 -0.7
v 0.7 0.1 -0.7
v -1 0.1 -1
v 1 0.1 -1
v -0.7 0.2 0.7
v -0.3 0.2 0.7
v 0.3 0.2 0.7
v 0.7 0.2 0.7
v -0.3 0.2 0.6
v -0.2 0.2 0.6
v 0.2 0.2 0.6
v 0.3 0.2 0.6
v -0.7 0.2 0.3
v -0.6 0.2 0.3
v 0.6 0.2 0.3
v 0.7 0.2 0.3
v -0.6 0.2 0.2
v -0.2 0.2 0.2
v 0.2 0.2 0.2
v 0.6 0.2 0.2
v -0.6 0.2 -0.2
v -0.2 0.2 -0.2
v 0.2 0.2 -0.2
v 0.6 0.2 -0.2
v -0.7 0.2 -0.3
v -0.6 0.2 -0.3
v 0.6 0.2 -0.3
v 0.7 0.2 -0.3
v -0.3 0.2 -0.6
v -0.2 0.2 -0.6
v 0.2 0.2 -0.6
v 0.3 0.2 -0.6
v -0.7 0.2 -0.7
v -0.3 0.2 -0.7
v 0.3 0.2 -0.7
v 0.7 0.2 -0.7

# faces
f 3/2/1 2/2/1 1/2/1
f 4/2/1 2/2/1 3/2/1
f 9/1/1 6/1/1 5/1/1
f 10/1/1 6/1/1 9/1/1
f 11/1/1 8/1/1 7/1/1
f 12/1/1 8/1/1 11/1/1
f 17/1/1 14/1/1 13/1/1
f 18/1/1 14/1/1 17/1/1
f 19/1/1 16/1/1 15/1/1
f 20/1/1 16/1/1 19/1/1
f 25/1/1 22/1/1 21/1/1
f 26/1/1 22/1/1 25/1/1
f 27/1/1 24/1/1 23/1/1
f 28/1/1 24/1/1 27/1/1
f 33/1/1 30/1/1 29/1/1
f 34/1/1 30/1/1 33/1/1
f 35/1/1 32/1/1 31/1/1
f 36/1/1 32/1/1 35/1/1
f 37/1/2 38/1/2 41/1/2
f 41/1/2 38/1/2 42/1/2
f 39/1/2 40/1/2 43/1/2
f 43/1/2 40/1/2 44/1/2
f 45/1/2 46/1/2 49/1/2
f 49/1/2 46/1/2 50/1/2
f 47/1/2 48/1/2 51/1/2
f 51/1/2 48/1/2 52/1/2
f 53/1/2 54/1/2 57/1/2
f 57/1/2 54/1/2 58/1/2
f 55/1/2 56/1/2 59/1/2
f 59/1/2 56/1/2 60/1/2
f 61/1/2 62/1/2 65/1/2
f 65/1/2 62/1/2 66/1/2
f 63/1/2 64/1/2 67/1/2
f 67/1/2 64/1/2 68/1/2
f 69/2/2 70/2/2 71/2/2
f 71/2/2 70/2/2 72/2/2
f 75/2/3 74/2/3 73/2/3
f 76/2/3 74/2/3 75/2/3
f 79/1/3 78/1/3 77/1/3
f 80/1/3 78/1/3 79/1/3
f 83/1/3 82/1/3 81/1/3
f 84/1/3 82/1/3 83/1/3
f 87/1/3 86/1/3 85/1/3
f 88/1/3 86/1/3 87/1/3
f 91/1/3 90/1/3 89/1/3
f 92/1/3 90/1/3 91/1/3
f 95/1/3 94/1/3 93/1/3
f 96/1/3 94/1/3 95/1/3
f 99/1/3 98/1/3 97/1/3
f 100/1/3 98/1/3 99/1/3
f 103/1/3 102/1/3 101/1/3
f 104/1/3 102/1/3 103/1/3
f 107/1/3 106/1/3 105/1/3
f 108/1/3 106/1/3 107/1/3
f 109/1/4 110/1/4 111/1/4
f 111/1/4 110/1/4 112/1/4
f 113/1/4 114/1/4 115/1/4
f 115/1/4 114/1/4 116/1/4
f 117/1/4 118/1/4 119/1/4
f 119/1/4 118/1/4 120/1/4
f 121/1/4 122/1/4 123/1/4
f 123/1/4 122/1/4 124/1/4
f 125/1/4 126/1/4 127/1/4
f 127/1/4 126/1/4 128/1/4
f 129/1/4 130/1/4 131/1/4
f 131/1/4 130/1/4 132/1/4
f 133/1/4 134/1/4 135/1/4
f 135/1/4 134/1/4 136/1/4
f 137/1/4 138/1/4 139/1/4
f 139/1/4 138/1/4 140/1/4
f 141/2/4 142/2/4 143/2/4
f 143/2/4 142/2/4 144/2/4
f 147/2/5 146/2/5 145/2/5
f 148/2/5 146/2/5 147/2/5
f 149/2/6 150/2/6 151/2/6
f 151/2/6 150/2/6 152/2/6
f 152/2/6 150/2/6 153/2/6
f 153/2/6 150/2/6 154/2/6
f 152/2/6 153/2/6 155/2/6
f 155/2/6 153/2/6 156/2/6
f 156/2/6 153/2/6 157/2/6
f 157/2/6 153/2/6 158/2/6
f 149/2/6 151/2/6 159/2/6
f 154/2/6 150/2/6 162/2/6
f 159/2/6 160/2/6 163/2/6
f 156/2/6 157/2/6 164/2/6
f 164/2/6 157/2/6 165/2/6
f 161/2/6 162/2/6 166/2/6
f 164/2/6 165/2/6 167/2/6
f 165/2/6 166/2/6 167/2/6
f 159/2/6 163/2/6 167/2/6
f 163/2/6 164/2/6 167/2/6
f 167/2/6 166/2/6 168/2/6
f 168/2/6 166/2/6 169/2/6
f 166/2/6 162/2/6 170/2/6
f 169/2/6 166/2/6 170/2/6
f 149/2/6 159/2/6 171/2/6
f 159/2/6 167/2/6 171/2/6
f 171/2/6 167/2/6 172/2/6
f 170/2/6 162/2/6 173/2/6
f 162/2/6 150/2/6 174/2/6
f 173/2/6 162/2/6 174/2/6
f 168/2/6 169/2/6 176/2/6
f 176/2/6 169/2/6 177/2/6
f 149/2/6 171/2/6 179/2/6
f 177/2/6 178/2/6 180/2/6
f 175/2/6 176/2/6 180/2/6
f 176/2/6 177/2/6 180/2/6
f 180/2/6 178/2/6 181/2/6
f 174/2/6 150/2/6 182/2/6
f 149/2/6 179/2/6 183/2/6
f 181/2/6 182/2/6 183/2/6
f 180/2/6 181/2/6 183/2/6
f 179/2/6 180/2/6 183/2/6
f 182/2/6 150/2/6 184/2/6
f 183/2/6 182/2/6 184/2/6
f 185/1/6 186/1/6 189/1/6
f 187/1/6 188/1/6 192/1/6
f 189/1/6 190/1/6 193/1/6
f 185/1/6 189/1/6 193/1/6
f 193/1/6 190/1/6 194/1/6
f 191/1/6 192/1/6 195/1/6
f 192/1/6 188/1/6 195/1/6
f 195/1/6 188/1/6 196/1/6
f 194/1/6 190/1/6 197/1/6
f 197/1/6 190/1/6 198/1/6
f 191/1/6 195/1/6 199/1/6
f 199/1/6 195/1/6 200/1/6
f 201/1/6 202/1/6 206/1/6
f 203/1/6 204/1/6 207/1/6
f 205/1/6 206/1/6 209/1/6
f 206/1/6 202/1/6 209/1/6
f 209/1/6 202/1/6 210/1/6
f 203/1/6 207/1/6 211/1/6
f 207/1/6 208/1/6 211/1/6
f 211/1/6 208/1/6 212/1/6
f 205/1/6 209/1/6 213/1/6
f 213/1/6 209/1/6 214/1/6
f 212/1/6 208/1/6 215/1/6
f 215/1/6 208/1/6 216/1/6
