# MagicaVoxel @ Ephtracy

# group
o 

# material
mtllib GroundSnow.mtl
usemtl palette

# normals
vn -1 0 0
vn 1 0 0
vn 0 0 1
vn 0 0 -1
vn 0 -1 0
vn 0 1 0

# texcoords
vt 0.0136719 0.5
vt 0.0175781 0.5
vt 0.0253906 0.5
vt 0.0292969 0.5

# verts
v -1 -1 1
v -1 -1 -1
v -1 -0.3 0.8
v -1 -0.3 0.6
v -1 -0.3 0.1
v -1 -0.3 -0.3
v -1 -0.3 -0.6
v -1 -0.3 -0.8
v -1 -0.2 0.9
v -1 -0.2 0.8
v -1 -0.2 0.6
v -1 -0.2 0.4
v -1 -0.2 0.2
v -1 -0.2 0.1
v -1 -0.2 -0.3
v -1 -0.2 -0.4
v -1 -0.2 -0.5
v -1 -0.2 -0.6
v -1 -0.2 -0.8
v -1 -0.2 -0.9
v -1 -0.1 1
v -1 -0.1 0.9
v -1 -0.1 0.4
v -1 -0.1 0.2
v -1 -0.1 -0.4
v -1 -0.1 -0.5
v -1 -0.1 -0.9
v -1 -0.1 -1
v -1 0.1 1
v -1 0.1 -1
v -0.9 0.1 0.5
v -0.9 0.1 0.3
v -0.9 0.2 0.5
v -0.9 0.2 0.3
v -0.4 0.1 -0.6
v -0.4 0.1 -0.8
v -0.4 0.2 -0.6
v -0.4 0.2 -0.8
v -0.3 0.1 0.3
v -0.3 0.1 0.1
v -0.3 0.2 0.3
v -0.3 0.2 0.1
v 0.3 0.1 0.7
v 0.3 0.1 0.5
v 0.3 0.2 0.7
v 0.3 0.2 0.5
v 0.7 0.1 -0.2
v 0.7 0.1 -0.4
v 0.7 0.3 -0.2
v 0.7 0.3 -0.4
v -0.7 0.1 0.5
v -0.7 0.1 0.3
v -0.7 0.2 0.5
v -0.7 0.2 0.3
v -0.3 0.1 -0.7
v -0.3 0.1 -0.8
v -0.3 0.2 -0.7
v -0.3 0.2 -0.8
v -0.2 0.1 -0.6
v -0.2 0.1 -0.7
v -0.2 0.2 -0.6
v -0.2 0.2 -0.7
v -0.1 0.1 0.3
v -0.1 0.1 0.1
v -0.1 0.2 0.3
v -0.1 0.2 0.1
v 0.5 0.1 0.7
v 0.5 0.1 0.5
v 0.5 0.2 0.7
v 0.5 0.2 0.5
v 0.9 0.1 -0.2
v 0.9 0.1 -0.4
v 0.9 0.3 -0.2
v 0.9 0.3 -0.4
v 1 -1 1
v 1 -1 -1
v 1 -0.3 1
v 1 -0.3 0.8
v 1 -0.3 -0.4
v 1 -0.3 -0.6
v 1 -0.2 0.8
v 1 -0.2 0.5
v 1 -0.2 0.3
v 1 -0.2 0
v 1 -0.2 -0.2
v 1 -0.2 -0.4
v 1 -0.2 -0.6
v 1 -0.2 -0.7
v 1 -0.2 -0.9
v 1 -0.2 -1
v 1 -0.1 0.5
v 1 -0.1 0.3
v 1 -0.1 0
v 1 -0.1 -0.2
v 1 -0.1 -0.7
v 1 -0.1 -0.9
v 1 0.1 1
v 1 0.1 -1
v -1 -1 1
v -1 -0.1 1
v -1 0.1 1
v -0.9 -0.2 1
v -0.9 -0.1 1
v -0.8 -0.3 1
v -0.8 -0.2 1
v -0.6 -0.3 1
v -0.6 -0.2 1
v -0.5 -0.2 1
v -0.5 -0.1 1
v -0.4 -0.2 1
v -0.4 -0.1 1
v -0.3 -0.3 1
v -0.3 -0.2 1
v -0.1 -0.3 1
v -0.1 -0.2 1
v 0 -0.2 1
v 0 -0.1 1
v 0.1 -0.2 1
v 0.1 -0.1 1
v 0.2 -0.3 1
v 0.2 -0.2 1
v 0.4 -0.3 1
v 0.4 -0.2 1
v 0.5 -0.2 1
v 0.5 -0.1 1
v 0.7 -0.2 1
v 0.7 -0.1 1
v 0.8 -0.3 1
v 0.8 -0.2 1
v 1 -1 1
v 1 -0.3 1
v 1 0.1 1
v 0.3 0.1 0.7
v 0.3 0.2 0.7
v 0.5 0.1 0.7
v 0.5 0.2 0.7
v -0.9 0.1 0.5
v -0.9 0.2 0.5
v -0.7 0.1 0.5
v -0.7 0.2 0.5
v -0.3 0.1 0.3
v -0.3 0.2 0.3
v -0.1 0.1 0.3
v -0.1 0.2 0.3
v 0.7 0.1 -0.2
v 0.7 0.3 -0.2
v 0.9 0.1 -0.2
v 0.9 0.3 -0.2
v -0.4 0.1 -0.6
v -0.4 0.2 -0.6
v -0.2 0.1 -0.6
v -0.2 0.2 -0.6
v 0.3 0.1 0.5
v 0.3 0.2 0.5
v 0.5 0.1 0.5
v 0.5 0.2 0.5
v -0.9 0.1 0.3
v -0.9 0.2 0.3
v -0.7 0.1 0.3
v -0.7 0.2 0.3
v -0.3 0.1 0.1
v -0.3 0.2 0.1
v -0.1 0.1 0.1
v -0.1 0.2 0.1
v 0.7 0.1 -0.4
v 0.7 0.3 -0.4
v 0.9 0.1 -0.4
v 0.9 0.3 -0.4
v -0.3 0.1 -0.7
v -0.3 0.2 -0.7
v -0.2 0.1 -0.7
v -0.2 0.2 -0.7
v -0.4 0.1 -0.8
v -0.4 0.2 -0.8
v -0.3 0.1 -0.8
v -0.3 0.2 -0.8
v -1 -1 -1
v -1 -0.1 -1
v -1 0.1 -1
v -0.7 -0.2 -1
v -0.7 -0.1 -1
v -0.4 -0.2 -1
v -0.4 -0.1 -1
v -0.2 -0.2 -1
v -0.2 -0.1 -1
v 0 -0.3 -1
v 0 -0.2 -1
v 0.3 -0.3 -1
v 0.3 -0.2 -1
v 0.5 -0.2 -1
v 0.5 -0.1 -1
v 0.7 -0.2 -1
v 0.7 -0.1 -1
v 1 -1 -1
v 1 -0.2 -1
v 1 0.1 -1
v -1 -1 1
v 1 -1 1
v -0.9 -1 0.9
v 0.9 -1 0.9
v -0.9 -1 -0.9
v 0.9 -1 -0.9
v -1 -1 -1
v 1 -1 -1
v -1 0.1 1
v 1 0.1 1
v 0.6 0.1 0.9
v 0.8 0.1 0.9
v -0.7 0.1 0.8
v -0.5 0.1 0.8
v 0.3 0.1 0.7
v 0.5 0.1 0.7
v 0.6 0.1 0.7
v 0.8 0.1 0.7
v -0.7 0.1 0.6
v -0.5 0.1 0.6
v -0.9 0.1 0.5
v -0.7 0.1 0.5
v 0.3 0.1 0.5
v 0.5 0.1 0.5
v -0.9 0.1 0.3
v -0.7 0.1 0.3
v -0.3 0.1 0.3
v -0.1 0.1 0.3
v 0.3 0.1 0.2
v 0.4 0.1 0.2
v -0.7 0.1 0.1
v -0.6 0.1 0.1
v -0.3 0.1 0.1
v -0.1 0.1 0.1
v 0.3 0.1 0
v 0.4 0.1 0
v -0.7 0.1 -0.1
v -0.6 0.1 -0.1
v 0.7 0.1 -0.2
v 0.9 0.1 -0.2
v 0.7 0.1 -0.4
v 0.9 0.1 -0.4
v 0 0.1 -0.5
v 0.1 0.1 -0.5
v -0.7 0.1 -0.6
v -0.6 0.1 -0.6
v -0.4 0.1 -0.6
v -0.2 0.1 -0.6
v 0 0.1 -0.6
v 0.1 0.1 -0.6
v -0.7 0.1 -0.7
v -0.6 0.1 -0.7
v -0.3 0.1 -0.7
v -0.2 0.1 -0.7
v 0.8 0.1 -0.7
v 0.9 0.1 -0.7
v -0.4 0.1 -0.8
v -0.3 0.1 -0.8
v 0.8 0.1 -0.8
v 0.9 0.1 -0.8
v -1 0.1 -1
v 1 0.1 -1
v 0.3 0.2 0.7
v 0.5 0.2 0.7
v -0.9 0.2 0.5
v -0.7 0.2 0.5
v 0.3 0.2 0.5
v 0.5 0.2 0.5
v -0.9 0.2 0.3
v -0.7 0.2 0.3
v -0.3 0.2 0.3
v -0.1 0.2 0.3
v -0.3 0.2 0.1
v -0.1 0.2 0.1
v -0.4 0.2 -0.6
v -0.2 0.2 -0.6
v -0.3 0.2 -0.7
v -0.2 0.2 -0.7
v -0.4 0.2 -0.8
v -0.3 0.2 -0.8
v 0.7 0.3 -0.2
v 0.9 0.3 -0.2
v 0.7 0.3 -0.4
v 0.9 0.3 -0.4

# faces
f 3/1/1 2/1/1 1/1/1
f 4/1/1 2/1/1 3/1/1
f 5/1/1 2/1/1 4/1/1
f 6/1/1 2/1/1 5/1/1
f 7/1/1 2/1/1 6/1/1
f 8/1/1 2/1/1 7/1/1
f 9/1/1 3/1/1 1/1/1
f 10/4/1 4/4/1 3/4/1
f 10/1/1 3/1/1 9/1/1
f 11/1/1 5/1/1 4/1/1
f 11/4/1 4/4/1 10/4/1
f 12/1/1 5/1/1 11/1/1
f 13/1/1 5/1/1 12/1/1
f 14/4/1 6/4/1 5/4/1
f 14/1/1 5/1/1 13/1/1
f 15/1/1 7/1/1 6/1/1
f 15/4/1 6/4/1 14/4/1
f 16/1/1 7/1/1 15/1/1
f 17/1/1 7/1/1 16/1/1
f 18/4/1 8/4/1 7/4/1
f 18/1/1 7/1/1 17/1/1
f 19/1/1 2/1/1 8/1/1
f 19/4/1 8/4/1 18/4/1
f 20/1/1 2/1/1 19/1/1
f 21/1/1 9/1/1 1/1/1
f 22/4/1 10/4/1 9/4/1
f 22/1/1 9/1/1 21/1/1
f 22/4/1 11/4/1 10/4/1
f 22/4/1 12/4/1 11/4/1
f 23/1/1 13/1/1 12/1/1
f 23/4/1 12/4/1 22/4/1
f 24/4/1 14/4/1 13/4/1
f 24/1/1 13/1/1 23/1/1
f 24/4/1 15/4/1 14/4/1
f 24/4/1 16/4/1 15/4/1
f 25/1/1 17/1/1 16/1/1
f 25/4/1 16/4/1 24/4/1
f 26/4/1 18/4/1 17/4/1
f 26/1/1 17/1/1 25/1/1
f 26/4/1 20/4/1 19/4/1
f 26/4/1 19/4/1 18/4/1
f 27/1/1 2/1/1 20/1/1
f 27/4/1 20/4/1 26/4/1
f 28/1/1 2/1/1 27/1/1
f 29/4/1 25/4/1 24/4/1
f 29/4/1 26/4/1 25/4/1
f 29/4/1 28/4/1 27/4/1
f 29/4/1 27/4/1 26/4/1
f 29/4/1 24/4/1 23/4/1
f 29/4/1 23/4/1 22/4/1
f 29/4/1 22/4/1 21/4/1
f 30/4/1 28/4/1 29/4/1
f 33/4/1 32/4/1 31/4/1
f 34/4/1 32/4/1 33/4/1
f 37/4/1 36/4/1 35/4/1
f 38/4/1 36/4/1 37/4/1
f 41/3/1 40/3/1 39/3/1
f 42/3/1 40/3/1 41/3/1
f 45/4/1 44/4/1 43/4/1
f 46/4/1 44/4/1 45/4/1
f 49/4/1 48/4/1 47/4/1
f 50/4/1 48/4/1 49/4/1
f 51/4/2 52/4/2 53/4/2
f 53/4/2 52/4/2 54/4/2
f 55/4/2 56/4/2 57/4/2
f 57/4/2 56/4/2 58/4/2
f 59/4/2 60/4/2 61/4/2
f 61/4/2 60/4/2 62/4/2
f 63/3/2 64/3/2 65/3/2
f 65/3/2 64/3/2 66/3/2
f 67/4/2 68/4/2 69/4/2
f 69/4/2 68/4/2 70/4/2
f 71/4/2 72/4/2 73/4/2
f 73/4/2 72/4/2 74/4/2
f 75/1/2 76/1/2 77/1/2
f 77/1/2 76/1/2 78/1/2
f 78/1/2 76/1/2 79/1/2
f 79/1/2 76/1/2 80/1/2
f 77/4/2 78/4/2 81/4/2
f 78/1/2 79/1/2 81/1/2
f 81/1/2 79/1/2 82/1/2
f 82/1/2 79/1/2 83/1/2
f 83/1/2 79/1/2 84/1/2
f 84/1/2 79/1/2 85/1/2
f 79/4/2 80/4/2 86/4/2
f 85/1/2 79/1/2 86/1/2
f 80/1/2 76/1/2 87/1/2
f 86/4/2 80/4/2 87/4/2
f 87/1/2 76/1/2 88/1/2
f 88/1/2 76/1/2 89/1/2
f 89/1/2 76/1/2 90/1/2
f 81/4/2 82/4/2 91/4/2
f 82/1/2 83/1/2 91/1/2
f 83/4/2 84/4/2 92/4/2
f 91/1/2 83/1/2 92/1/2
f 84/1/2 85/1/2 93/1/2
f 92/4/2 84/4/2 93/4/2
f 85/4/2 86/4/2 94/4/2
f 93/1/2 85/1/2 94/1/2
f 86/4/2 87/4/2 94/4/2
f 87/4/2 88/4/2 94/4/2
f 88/1/2 89/1/2 95/1/2
f 94/4/2 88/4/2 95/4/2
f 89/4/2 90/4/2 96/4/2
f 95/1/2 89/1/2 96/1/2
f 92/4/2 93/4/2 97/4/2
f 91/4/2 92/4/2 97/4/2
f 95/4/2 96/4/2 97/4/2
f 93/4/2 94/4/2 97/4/2
f 81/4/2 91/4/2 97/4/2
f 94/4/2 95/4/2 97/4/2
f 77/4/2 81/4/2 97/4/2
f 96/4/2 90/4/2 98/4/2
f 97/4/2 96/4/2 98/4/2
f 102/1/3 100/1/3 99/1/3
f 103/4/3 101/4/3 100/4/3
f 103/1/3 100/1/3 102/1/3
f 104/1/3 102/1/3 99/1/3
f 105/4/3 103/4/3 102/4/3
f 105/1/3 102/1/3 104/1/3
f 106/1/3 104/1/3 99/1/3
f 106/4/3 105/4/3 104/4/3
f 107/4/3 103/4/3 105/4/3
f 107/4/3 105/4/3 106/4/3
f 108/1/3 107/1/3 106/1/3
f 108/4/3 103/4/3 107/4/3
f 109/4/3 101/4/3 103/4/3
f 109/4/3 103/4/3 108/4/3
f 110/1/3 108/1/3 106/1/3
f 110/1/3 109/1/3 108/1/3
f 111/4/3 101/4/3 109/4/3
f 111/1/3 109/1/3 110/1/3
f 112/1/3 110/1/3 106/1/3
f 112/1/3 106/1/3 99/1/3
f 113/4/3 111/4/3 110/4/3
f 113/1/3 110/1/3 112/1/3
f 114/1/3 112/1/3 99/1/3
f 114/4/3 113/4/3 112/4/3
f 115/4/3 111/4/3 113/4/3
f 115/4/3 113/4/3 114/4/3
f 116/1/3 115/1/3 114/1/3
f 116/4/3 111/4/3 115/4/3
f 117/4/3 101/4/3 111/4/3
f 117/4/3 111/4/3 116/4/3
f 118/1/3 116/1/3 114/1/3
f 118/1/3 117/1/3 116/1/3
f 119/4/3 101/4/3 117/4/3
f 119/1/3 117/1/3 118/1/3
f 120/1/3 118/1/3 114/1/3
f 120/1/3 114/1/3 99/1/3
f 121/4/3 119/4/3 118/4/3
f 121/1/3 118/1/3 120/1/3
f 122/1/3 120/1/3 99/1/3
f 122/4/3 121/4/3 120/4/3
f 123/4/3 119/4/3 121/4/3
f 123/4/3 121/4/3 122/4/3
f 124/1/3 123/1/3 122/1/3
f 124/4/3 119/4/3 123/4/3
f 125/4/3 101/4/3 119/4/3
f 125/4/3 119/4/3 124/4/3
f 126/1/3 124/1/3 122/1/3
f 126/1/3 125/1/3 124/1/3
f 127/4/3 101/4/3 125/4/3
f 127/1/3 125/1/3 126/1/3
f 128/1/3 126/1/3 122/1/3
f 128/1/3 122/1/3 99/1/3
f 129/4/3 127/4/3 126/4/3
f 129/1/3 126/1/3 128/1/3
f 130/1/3 128/1/3 99/1/3
f 131/4/3 129/4/3 128/4/3
f 131/1/3 128/1/3 130/1/3
f 132/4/3 101/4/3 127/4/3
f 132/4/3 129/4/3 131/4/3
f 132/4/3 127/4/3 129/4/3
f 135/4/3 134/4/3 133/4/3
f 136/4/3 134/4/3 135/4/3
f 139/4/3 138/4/3 137/4/3
f 140/4/3 138/4/3 139/4/3
f 143/3/3 142/3/3 141/3/3
f 144/3/3 142/3/3 143/3/3
f 147/4/3 146/4/3 145/4/3
f 148/4/3 146/4/3 147/4/3
f 151/4/3 150/4/3 149/4/3
f 152/4/3 150/4/3 151/4/3
f 153/4/4 154/4/4 155/4/4
f 155/4/4 154/4/4 156/4/4
f 157/4/4 158/4/4 159/4/4
f 159/4/4 158/4/4 160/4/4
f 161/3/4 162/3/4 163/3/4
f 163/3/4 162/3/4 164/3/4
f 165/4/4 166/4/4 167/4/4
f 167/4/4 166/4/4 168/4/4
f 169/4/4 170/4/4 171/4/4
f 171/4/4 170/4/4 172/4/4
f 173/4/4 174/4/4 175/4/4
f 175/4/4 174/4/4 176/4/4
f 177/1/4 178/1/4 180/1/4
f 178/4/4 179/4/4 181/4/4
f 180/1/4 178/1/4 181/1/4
f 177/1/4 180/1/4 182/1/4
f 180/4/4 181/4/4 182/4/4
f 181/4/4 179/4/4 183/4/4
f 182/4/4 181/4/4 183/4/4
f 177/1/4 182/1/4 184/1/4
f 182/1/4 183/1/4 184/1/4
f 183/4/4 179/4/4 185/4/4
f 184/1/4 183/1/4 185/1/4
f 177/1/4 184/1/4 186/1/4
f 184/4/4 185/4/4 187/4/4
f 186/1/4 184/1/4 187/1/4
f 177/1/4 186/1/4 188/1/4
f 186/4/4 187/4/4 188/4/4
f 187/4/4 185/4/4 189/4/4
f 188/4/4 187/4/4 189/4/4
f 188/1/4 189/1/4 190/1/4
f 189/4/4 185/4/4 190/4/4
f 185/4/4 179/4/4 191/4/4
f 190/4/4 185/4/4 191/4/4
f 188/1/4 190/1/4 192/1/4
f 190/1/4 191/1/4 192/1/4
f 191/4/4 179/4/4 193/4/4
f 192/1/4 191/1/4 193/1/4
f 188/1/4 192/1/4 194/1/4
f 177/1/4 188/1/4 194/1/4
f 192/4/4 193/4/4 195/4/4
f 194/1/4 192/1/4 195/1/4
f 193/4/4 179/4/4 196/4/4
f 195/4/4 193/4/4 196/4/4
f 199/1/5 198/1/5 197/1/5
f 200/1/5 198/1/5 199/1/5
f 201/1/5 199/1/5 197/1/5
f 201/2/5 200/2/5 199/2/5
f 202/1/5 198/1/5 200/1/5
f 202/2/5 200/2/5 201/2/5
f 203/1/5 201/1/5 197/1/5
f 203/1/5 202/1/5 201/1/5
f 204/1/5 198/1/5 202/1/5
f 204/1/5 202/1/5 203/1/5
f 205/4/6 206/4/6 207/4/6
f 207/4/6 206/4/6 208/4/6
f 205/4/6 207/4/6 209/4/6
f 209/4/6 207/4/6 210/4/6
f 210/4/6 207/4/6 211/4/6
f 211/4/6 207/4/6 212/4/6
f 207/3/6 208/3/6 213/3/6
f 212/4/6 207/4/6 213/4/6
f 208/4/6 206/4/6 214/4/6
f 213/3/6 208/3/6 214/3/6
f 205/4/6 209/4/6 215/4/6
f 209/3/6 210/3/6 215/3/6
f 210/4/6 211/4/6 216/4/6
f 215/3/6 210/3/6 216/3/6
f 205/4/6 215/4/6 217/4/6
f 215/4/6 216/4/6 217/4/6
f 217/4/6 216/4/6 218/4/6
f 216/4/6 211/4/6 219/4/6
f 218/4/6 216/4/6 219/4/6
f 212/4/6 213/4/6 220/4/6
f 213/4/6 214/4/6 220/4/6
f 205/4/6 217/4/6 221/4/6
f 218/4/6 219/4/6 222/4/6
f 219/4/6 220/4/6 222/4/6
f 222/4/6 220/4/6 223/4/6
f 223/4/6 220/4/6 224/4/6
f 224/4/6 220/4/6 225/4/6
f 225/4/6 220/4/6 226/4/6
f 221/4/6 222/4/6 227/4/6
f 222/4/6 223/4/6 227/4/6
f 227/4/6 223/4/6 228/4/6
f 228/4/6 223/4/6 229/4/6
f 224/4/6 225/4/6 230/4/6
f 225/3/6 226/3/6 231/3/6
f 229/4/6 230/4/6 231/4/6
f 230/4/6 225/4/6 231/4/6
f 228/4/6 229/4/6 231/4/6
f 226/4/6 220/4/6 232/4/6
f 231/3/6 226/3/6 232/3/6
f 227/3/6 228/3/6 233/3/6
f 221/4/6 227/4/6 233/4/6
f 228/4/6 231/4/6 234/4/6
f 233/3/6 228/3/6 234/3/6
f 231/4/6 232/4/6 234/4/6
f 220/4/6 214/4/6 235/4/6
f 234/4/6 232/4/6 235/4/6
f 233/4/6 234/4/6 235/4/6
f 232/4/6 220/4/6 235/4/6
f 214/4/6 206/4/6 236/4/6
f 235/4/6 214/4/6 236/4/6
f 233/4/6 235/4/6 237/4/6
f 236/4/6 206/4/6 238/4/6
f 233/4/6 237/4/6 239/4/6
f 237/4/6 238/4/6 239/4/6
f 239/4/6 238/4/6 240/4/6
f 221/4/6 233/4/6 241/4/6
f 233/4/6 239/4/6 241/4/6
f 241/4/6 239/4/6 242/4/6
f 242/4/6 239/4/6 243/4/6
f 243/4/6 239/4/6 244/4/6
f 239/3/6 240/3/6 245/3/6
f 244/4/6 239/4/6 245/4/6
f 240/4/6 238/4/6 246/4/6
f 245/3/6 240/3/6 246/3/6
f 221/4/6 241/4/6 247/4/6
f 241/3/6 242/3/6 247/3/6
f 242/4/6 243/4/6 248/4/6
f 247/3/6 242/3/6 248/3/6
f 244/4/6 245/4/6 250/4/6
f 245/4/6 246/4/6 250/4/6
f 246/4/6 238/4/6 251/4/6
f 250/4/6 246/4/6 251/4/6
f 238/4/6 206/4/6 252/4/6
f 251/4/6 238/4/6 252/4/6
f 248/4/6 243/4/6 253/4/6
f 247/4/6 248/4/6 253/4/6
f 250/4/6 251/4/6 254/4/6
f 249/4/6 250/4/6 254/4/6
f 251/3/6 252/3/6 255/3/6
f 254/4/6 251/4/6 255/4/6
f 252/4/6 206/4/6 256/4/6
f 255/3/6 252/3/6 256/3/6
f 205/4/6 221/4/6 257/4/6
f 247/4/6 253/4/6 257/4/6
f 255/4/6 256/4/6 257/4/6
f 254/4/6 255/4/6 257/4/6
f 221/4/6 247/4/6 257/4/6
f 253/4/6 254/4/6 257/4/6
f 256/4/6 206/4/6 258/4/6
f 257/4/6 256/4/6 258/4/6
f 259/4/6 260/4/6 263/4/6
f 263/4/6 260/4/6 264/4/6
f 261/4/6 262/4/6 265/4/6
f 265/4/6 262/4/6 266/4/6
f 267/3/6 268/3/6 269/3/6
f 269/3/6 268/3/6 270/3/6
f 271/4/6 272/4/6 273/4/6
f 273/4/6 272/4/6 274/4/6
f 271/4/6 273/4/6 275/4/6
f 275/4/6 273/4/6 276/4/6
f 277/4/6 278/4/6 279/4/6
f 279/4/6 278/4/6 280/4/6
